<svg width="86" height="86" viewBox="0 0 86 86" fill="none" xmlns="http://www.w3.org/2000/svg">
<rect width="86" height="86" rx="43" fill="#00AB55" fill-opacity="0.1"/>
<path d="M61.7501 39.25V31.75C61.7501 29.6687 60.0626 28 58.0001 28H28.0001C25.9376 28 24.2689 29.6687 24.2689 31.75V39.25C26.3314 39.25 28.0001 40.9375 28.0001 43C28.0001 45.0625 26.3314 46.75 24.2501 46.75V54.25C24.2501 56.3125 25.9376 58 28.0001 58H58.0001C60.0626 58 61.7501 56.3125 61.7501 54.25V46.75C59.6876 46.75 58.0001 45.0625 58.0001 43C58.0001 40.9375 59.6876 39.25 61.7501 39.25ZM44.8751 53.3125H41.1251V49.5625H44.8751V53.3125ZM44.8751 44.875H41.1251V41.125H44.8751V44.875ZM44.8751 36.4375H41.1251V32.6875H44.8751V36.4375Z" fill="#00AB55"/>
<g filter="url(#filter0_d_15_641)">
<g filter="url(#filter1_b_15_641)">
<path d="M39 52C39 59.732 45.268 66 53 66C60.732 66 67 59.732 67 52C67 44.268 60.732 38 53 38C45.268 38 39 44.268 39 52Z" fill="white" fill-opacity="0.1"/>
<path d="M53 65.8249C45.3647 65.8249 39.175 59.6353 39.175 52C39.175 44.3647 45.3647 38.175 53 38.175C60.6353 38.175 66.8249 44.3647 66.8249 52C66.8249 59.6353 60.6353 65.8249 53 65.8249Z" stroke="url(#paint0_linear_15_641)" stroke-width="0.350064"/>
</g>
<path d="M46.5 52.25L51.168 56.75L60.5 47.75" stroke="white" stroke-width="3" stroke-linecap="round" stroke-linejoin="round"/>
</g>
<defs>
<filter id="filter0_d_15_641" x="33" y="34" width="40" height="40" filterUnits="userSpaceOnUse" color-interpolation-filters="sRGB">
<feFlood flood-opacity="0" result="BackgroundImageFix"/>
<feColorMatrix in="SourceAlpha" type="matrix" values="0 0 0 0 0 0 0 0 0 0 0 0 0 0 0 0 0 0 127 0" result="hardAlpha"/>
<feOffset dy="2"/>
<feGaussianBlur stdDeviation="3"/>
<feComposite in2="hardAlpha" operator="out"/>
<feColorMatrix type="matrix" values="0 0 0 0 0 0 0 0 0 0.145249 0 0 0 0 0.071764 0 0 0 0.08 0"/>
<feBlend mode="normal" in2="BackgroundImageFix" result="effect1_dropShadow_15_641"/>
<feBlend mode="normal" in="SourceGraphic" in2="effect1_dropShadow_15_641" result="shape"/>
</filter>
<filter id="filter1_b_15_641" x="35" y="34" width="36" height="36" filterUnits="userSpaceOnUse" color-interpolation-filters="sRGB">
<feFlood flood-opacity="0" result="BackgroundImageFix"/>
<feGaussianBlur in="BackgroundImageFix" stdDeviation="2"/>
<feComposite in2="SourceAlpha" operator="in" result="effect1_backgroundBlur_15_641"/>
<feBlend mode="normal" in="SourceGraphic" in2="effect1_backgroundBlur_15_641" result="shape"/>
</filter>
<linearGradient id="paint0_linear_15_641" x1="53" y1="38" x2="63.0618" y2="63.6349" gradientUnits="userSpaceOnUse">
<stop stop-color="white" stop-opacity="0"/>
<stop offset="1" stop-color="white"/>
</linearGradient>
</defs>
</svg>
