<svg width="80" height="80" viewBox="0 0 80 80" fill="none" xmlns="http://www.w3.org/2000/svg">
<circle cx="40.0003" cy="40" r="37.6472" fill="white" stroke="#F54133" stroke-width="4.70589"/>
<path d="M25.1919 55.9217L44.2307 74.9605C60.2634 73.0678 72.956 60.4866 74.9601 44.4539L55.8099 25.3037L25.1919 55.9217Z" fill="#F2F3F5"/>
<path d="M56.7004 47.7941C58.2591 49.3528 58.2591 52.0249 56.7004 53.5837L53.5829 56.7011C52.0242 58.2599 49.3521 58.2599 47.7933 56.7011L23.2989 32.2067C21.7402 30.648 21.7402 27.9759 23.2989 26.4171L26.5277 23.1883C28.0865 21.6296 30.7586 21.6296 32.3173 23.1883L56.7004 47.7941Z" fill="#F54133"/>
<path d="M43.7855 34.7673L34.7671 43.7857L47.7937 56.701C49.3524 58.2597 52.0245 58.2597 53.5832 56.701L56.812 53.4721C58.3708 51.9134 58.3708 49.2413 56.812 47.6826L43.7855 34.7673Z" fill="#F54133"/>
<path d="M47.7933 23.2997C49.3521 21.7409 52.0242 21.7409 53.5829 23.2997L56.8117 26.5285C58.3705 28.0872 58.3705 30.7593 56.8117 32.3181L32.206 56.7011C30.6473 58.2599 27.9751 58.2599 26.4164 56.7011L23.2989 53.5837C21.7402 52.0249 21.7402 49.3528 23.2989 47.7941L47.7933 23.2997Z" fill="#F54133"/>
</svg>
