<svg width="24" height="24" viewBox="0 0 24 24" fill="none" xmlns="http://www.w3.org/2000/svg">
<path d="M15.0078 10.9235H19.8078" stroke="#2C7941" stroke-width="0.8" stroke-linecap="round"/>
<path d="M15.0078 13.157H19.8078" stroke="#2C7941" stroke-width="0.8" stroke-linecap="round"/>
<path d="M15.0078 15.3906H19.8078" stroke="#2C7941" stroke-width="0.8" stroke-linecap="round"/>
<path d="M15.0078 17.6242H19.8078" stroke="#2C7941" stroke-width="0.8" stroke-linecap="round"/>
<path d="M16.949 0.48C17.0338 0.48 17.1151 0.513617 17.1751 0.573475L22.2259 5.61318C22.2861 5.67321 22.3199 5.75471 22.3199 5.8397V23.2C22.3199 23.3767 22.1766 23.52 21.9999 23.52H5.1999C5.02317 23.52 4.8799 23.3767 4.8799 23.2V0.799999C4.8799 0.623269 5.02317 0.48 5.1999 0.48H16.949Z" stroke="#2C7941" stroke-width="0.96"/>
<path d="M17.1968 0.549988V4.7078C17.1968 5.14963 17.5549 5.5078 17.9968 5.5078H22.1577" stroke="#2C7941" stroke-width="0.96"/>
<path d="M1.19995 8.48459L13.2 7.33594V20.9359L1.19995 19.7873V8.48459Z" fill="#2C7941"/>
<path d="M7.20334 14.9706L8.76042 16.9849L8.78444 17.0159H8.82371H10.2107H10.3819L10.2721 16.8846L7.94908 14.1047L10.2011 11.387L10.3096 11.2559H10.1395H8.73945H8.6998L8.67579 11.2875L7.1843 13.2477L5.71174 11.2879L5.68774 11.2559H5.64779H4.26075H4.09056L4.19915 11.387L6.45112 14.1047L4.12807 16.8846L4.01835 17.0159H4.18945H5.58297H5.62225L5.64627 16.9849L7.20334 14.9706Z" fill="white" stroke="white" stroke-width="0.16"/>
</svg>
