<svg width="74" height="62" viewBox="0 0 74 62" fill="none" xmlns="http://www.w3.org/2000/svg">
<path d="M36 59C36 59.5522 36.4477 60 37 60C37.5523 60 38 59.5522 38 59H36ZM37.7071 22.0306C37.3166 21.64 36.6834 21.64 36.2929 22.0306L29.9289 28.3945C29.5384 28.785 29.5384 29.4182 29.9289 29.8087C30.3195 30.1993 30.9526 30.1993 31.3431 29.8087L37 24.1519L42.6569 29.8087C43.0474 30.1993 43.6805 30.1993 44.0711 29.8087C44.4616 29.4182 44.4616 28.785 44.0711 28.3945L37.7071 22.0306ZM38 59V22.7377H36V59H38Z" fill="#D2D7DB"/>
<path d="M29.7131 45.2295H17.2623C10.1641 45.2295 4.40985 39.4753 4.40985 32.377C4.40985 26.6049 8.215 21.7214 13.4537 20.0983C14.3481 15.9653 18.0256 12.8689 22.4262 12.8689C23.4833 12.8689 24.4988 13.0475 25.4439 13.3763C27.8831 7.29476 33.8335 3 40.7869 3C49.9132 3 57.3115 10.3983 57.3115 19.5246C57.3115 20.3112 57.2566 21.085 57.1502 21.8424C57.3933 21.8273 57.6384 21.8197 57.8853 21.8197C64.3497 21.8197 69.5902 27.0601 69.5902 33.5246C69.5902 39.989 64.3497 45.2295 57.8853 45.2295H45.4344" stroke="#D2D7DB" stroke-width="2" stroke-linecap="round"/>
</svg>
