<svg width="84" height="84" viewBox="0 0 84 84" fill="none" xmlns="http://www.w3.org/2000/svg">
<path d="M33.5395 30.832C31.39 27.6068 30.1472 23.5503 29.6198 21.149C29.488 20.5489 29.9548 20 30.5692 20H52.4308C53.0452 20 53.512 20.5489 53.3802 21.149C52.8528 23.5503 51.61 27.6068 49.4605 30.832C52.0083 33.8586 58.538 39.9116 61.2445 48.9913C63.6907 57.1975 65.7034 74 51.8491 74H42.613H40.387H31.1509C17.2966 74 19.3093 57.1975 21.7555 48.9913C24.462 39.9116 30.9917 33.8586 33.5395 30.832Z" fill="#7AD3A6"/>
<rect x="26.5" y="28.9775" width="30" height="7" rx="3.5" fill="#00AB55"/>
<circle cx="55.3477" cy="61.6836" r="12.1353" fill="#00AB55" stroke="#C9F2DD" stroke-width="2.5"/>
<path d="M55.5088 66.3312C54.4361 66.3312 53.5655 66.1166 52.8971 65.6875C52.2287 65.2543 51.845 64.588 51.7459 63.6885L53.6274 63.6514C53.7264 64.0598 53.9389 64.3713 54.2648 64.5859C54.5949 64.7963 55.0075 64.9015 55.5026 64.9015C55.7997 64.9015 56.0617 64.8541 56.2886 64.7592C56.5197 64.6602 56.7012 64.5281 56.8333 64.3631C56.9653 64.1939 57.0313 64.0021 57.0313 63.7875C57.0313 63.4574 56.9261 63.2119 56.7157 63.051C56.5053 62.886 56.1814 62.754 55.744 62.6549L54.2772 62.3393C53.5964 62.2031 53.0497 61.9329 52.6372 61.5285C52.2287 61.1201 52.0203 60.5734 52.0121 59.8885C52.0079 59.3273 52.1585 58.8425 52.4639 58.4341C52.7733 58.0215 53.1921 57.7038 53.7202 57.481C54.2525 57.2582 54.8487 57.1468 55.5088 57.1468C56.1855 57.1468 56.7693 57.2685 57.2603 57.5119C57.7554 57.7512 58.135 58.0751 58.3991 58.4836C58.6673 58.8879 58.7972 59.3356 58.789 59.8266L56.9632 59.8575C56.9055 59.4614 56.7734 59.1499 56.5671 58.923C56.3608 58.6961 56.0184 58.5826 55.5398 58.5826C55.2922 58.5826 55.0715 58.6094 54.8776 58.6631C54.6836 58.7167 54.5165 58.793 54.3762 58.8921C54.236 58.9869 54.1287 59.1004 54.0544 59.2324C53.9843 59.3645 53.9492 59.513 53.9492 59.6781C53.9492 59.938 54.0359 60.1443 54.2091 60.2969C54.3866 60.4455 54.7187 60.5837 55.2056 60.7116L56.6476 61.0644C57.4604 61.2583 58.0463 61.5904 58.4053 62.0608C58.7683 62.5312 58.9499 63.1026 58.9499 63.7751C58.9499 64.2909 58.8075 64.7406 58.5229 65.1243C58.2423 65.5081 57.8441 65.8051 57.3284 66.0155C56.8126 66.226 56.2061 66.3312 55.5088 66.3312ZM54.7043 67.3895V65.7804H56.2639V67.3895H54.7043ZM54.7352 57.5862V55.9771H56.301V57.5862H54.7352Z" fill="white"/>
<path d="M49.1277 14.7456L46.0657 17.8849" stroke="#00AB55" stroke-width="1.5" stroke-linecap="round"/>
<path d="M43.9949 11.6631L43.3634 16.0027" stroke="#00AB55" stroke-width="1.5" stroke-linecap="round"/>
<path d="M38.4105 11.9438L39.7547 16.1181" stroke="#00AB55" stroke-width="1.5" stroke-linecap="round"/>
<path d="M33.9588 14.8594L36.7322 18.2563" stroke="#00AB55" stroke-width="1.5" stroke-linecap="round"/>
</svg>
