<svg width="80" height="80" viewBox="0 0 80 80" fill="none" xmlns="http://www.w3.org/2000/svg">
<circle cx="40.0003" cy="40" r="37.6472" fill="white" stroke="#5CA81A" stroke-width="4.70589"/>
<circle cx="40.0003" cy="40" r="35.2942" fill="white"/>
<g clip-path="url(#clip0_2057_3943)">
<path d="M40.0003 75.2942C59.4927 75.2942 75.2945 59.4924 75.2945 40C75.2945 20.5075 59.4927 4.70575 40.0003 4.70575C20.5078 4.70575 4.70605 20.5075 4.70605 40C4.70605 59.4924 20.5078 75.2942 40.0003 75.2942Z" fill="white"/>
<path d="M30.9814 55.9214L49.1296 74.0695C64.1602 70.0613 75.294 56.3667 75.294 40V38.998L61.0428 25.86L30.9814 55.9214Z" fill="#F2F3F5"/>
<path d="M40.8909 47.905C42.4496 49.4638 42.4496 52.1359 40.8909 53.6946L37.6621 56.9234C36.1033 58.4821 33.4312 58.4821 31.8725 56.9234L17.7325 42.6721C16.1738 41.1134 16.1738 38.4413 17.7325 36.8825L20.9613 33.6537C22.5201 32.095 25.1922 32.095 26.7509 33.6537L40.8909 47.905Z" fill="#5CA81A"/>
<path d="M53.2494 23.2992C54.8081 21.7405 57.4802 21.7405 59.039 23.2992L62.2678 26.528C63.8265 28.0868 63.8265 30.7589 62.2678 32.3176L37.7734 56.7007C36.2146 58.2594 33.5425 58.2594 31.9838 56.7007L28.755 53.4719C27.1963 51.9131 27.1963 49.241 28.755 47.6823L53.2494 23.2992Z" fill="#5CA81A"/>
</g>
<defs>
<clipPath id="clip0_2057_3943">
<rect width="70.5884" height="70.5884" fill="white" transform="translate(4.70605 4.70575)"/>
</clipPath>
</defs>
</svg>
